<?xml version="1.0" standalone="no"?>
<!DOCTYPE svg PUBLIC "-//W3C//DTD SVG 20010904//EN"
 "http://www.w3.org/TR/2001/REC-SVG-20010904/DTD/svg10.dtd">
<svg version="1.0" xmlns="http://www.w3.org/2000/svg"
 width="200.000000pt" height="70.000000pt" viewBox="0 0 200.000000 70.000000"
 preserveAspectRatio="xMidYMid meet">

<g transform="translate(0.000000,70.000000) scale(0.100000,-0.100000)"
fill="#000000" stroke="none">
<path d="M0 350 l0 -350 1000 0 1000 0 0 350 0 350 -1000 0 -1000 0 0 -350z
m160 15 c0 -41 -4 -65 -11 -65 -11 0 -8 -25 7 -64 5 -12 0 -16 -19 -16 -21 0
-28 8 -40 43 l-15 42 -1 -42 c-1 -39 -3 -43 -26 -43 -25 0 -25 0 -25 93 0 59
4 97 12 105 7 7 36 12 65 12 l53 0 0 -65z m170 45 c0 -16 -7 -20 -30 -20 -23
0 -30 -4 -30 -20 0 -15 7 -20 25 -20 18 0 25 -5 25 -20 0 -15 -7 -20 -25 -20
-20 0 -25 -5 -25 -25 0 -21 5 -25 30 -25 23 0 30 -4 30 -20 0 -18 -7 -20 -55
-20 l-55 0 0 105 0 105 55 0 c48 0 55 -2 55 -20z m172 3 c14 -13 18 -31 18
-93 0 -46 -5 -81 -12 -88 -7 -7 -36 -12 -65 -12 l-53 0 0 105 0 105 47 0 c29
0 53 -6 65 -17z m248 -68 l0 -85 30 0 c23 0 30 -4 30 -20 0 -18 -7 -20 -55
-20 l-55 0 0 105 0 105 25 0 c25 0 25 -1 25 -85z m250 -20 l0 -105 -25 0 c-22
0 -25 4 -25 35 0 24 -5 35 -15 35 -10 0 -15 -11 -15 -35 0 -31 -3 -35 -25 -35
-25 0 -25 1 -25 87 0 107 11 123 82 123 l48 0 0 -105z m131 50 l17 -50 1 53
c1 45 4 52 21 52 19 0 20 -7 20 -105 0 -103 0 -105 -23 -105 -19 0 -26 9 -39
48 l-16 47 -1 -47 c-1 -44 -3 -48 -26 -48 l-25 0 0 106 0 105 27 -3 c22 -2 29
-12 44 -53z m259 35 c0 -13 -7 -20 -20 -20 -18 0 -20 -7 -20 -85 0 -84 0 -85
-25 -85 -25 0 -25 1 -25 85 0 78 -2 85 -20 85 -13 0 -20 7 -20 20 0 18 7 20
65 20 58 0 65 -2 65 -20z m170 0 c0 -16 -7 -20 -30 -20 -23 0 -30 -4 -30 -20
0 -15 7 -20 25 -20 18 0 25 -5 25 -20 0 -15 -7 -20 -25 -20 -20 0 -25 -5 -25
-25 0 -21 5 -25 30 -25 23 0 30 -4 30 -20 0 -18 -7 -20 -55 -20 l-55 0 0 105
0 105 55 0 c48 0 55 -2 55 -20z m190 -45 c0 -41 -4 -65 -11 -65 -11 0 -8 -25
7 -64 5 -12 0 -16 -19 -16 -21 0 -28 8 -40 43 l-15 42 -1 -42 c-1 -39 -3 -43
-26 -43 -25 0 -25 0 -25 93 0 59 4 97 12 105 7 7 36 12 65 12 l53 0 0 -65z
m131 10 l17 -50 1 53 c1 45 4 52 21 52 19 0 20 -7 20 -105 0 -103 0 -105 -23
-105 -19 0 -26 9 -39 48 l-16 47 -1 -47 c-1 -44 -3 -48 -26 -48 l-25 0 0 106
0 105 27 -3 c22 -2 29 -12 44 -53z"/>
<path d="M80 365 c0 -16 6 -25 15 -25 9 0 15 9 15 25 0 16 -6 25 -15 25 -9 0
-15 -9 -15 -25z"/>
<path d="M440 325 c0 -51 3 -65 15 -65 12 0 15 14 15 65 0 51 -3 65 -15 65
-12 0 -15 -14 -15 -65z"/>
<path d="M920 360 c0 -20 5 -30 15 -30 10 0 15 10 15 30 0 20 -5 30 -15 30
-10 0 -15 -10 -15 -30z"/>
<path d="M1670 365 c0 -16 6 -25 15 -25 9 0 15 9 15 25 0 16 -6 25 -15 25 -9
0 -15 -9 -15 -25z"/>
</g>
</svg>
