<?xml version="1.0" standalone="no"?>
<!DOCTYPE svg PUBLIC "-//W3C//DTD SVG 20010904//EN"
 "http://www.w3.org/TR/2001/REC-SVG-20010904/DTD/svg10.dtd">
<svg version="1.0" xmlns="http://www.w3.org/2000/svg"
 width="200.000000pt" height="70.000000pt" viewBox="0 0 200.000000 70.000000"
 preserveAspectRatio="xMidYMid meet">

<g transform="translate(0.000000,70.000000) scale(0.100000,-0.100000)"
fill="#000000" stroke="none">
<path d="M0 350 l0 -350 1000 0 1000 0 0 350 0 350 -1000 0 -1000 0 0 -350z
m587 117 c15 -16 22 -42 27 -92 7 -81 -6 -140 -34 -155 -12 -7 -82 -10 -178
-8 -86 1 -147 4 -134 6 12 2 22 8 22 13 0 12 -33 12 -46 0 -13 -13 -54 5 -54
25 0 12 -6 10 -21 -10 -31 -39 -39 -20 -39 95 0 82 3 100 20 122 l20 26 198 0
c194 1 199 0 219 -22z m174 -7 c4 -14 7 -58 8 -97 1 -70 2 -73 27 -79 36 -9
44 7 44 89 0 59 3 71 25 92 22 23 32 25 118 25 75 0 96 -3 101 -15 7 -19 32
-19 40 0 5 13 46 15 305 14 243 -1 301 -4 305 -15 7 -19 32 -18 40 1 7 20 52
19 60 -1 3 -9 5 -68 4 -132 l-2 -117 -5 110 -6 110 -6 -85 c-3 -57 -11 -94
-23 -112 -18 -28 -18 -28 5 -29 18 -1 20 -2 6 -6 -10 -3 -27 3 -37 12 -11 10
-26 15 -35 12 -10 -5 -15 0 -15 13 0 18 -1 18 -22 -3 -23 -22 -23 -22 -3 -28
11 -3 -5 -6 -35 -5 -30 0 -45 2 -32 4 12 2 22 8 22 13 0 11 -37 12 -44 0 -10
-16 -56 0 -56 20 0 18 -2 17 -26 -4 l-26 -22 24 -6 c13 -4 -15 -7 -63 -8 -54
-1 -89 3 -97 11 -7 7 -12 43 -12 93 0 82 -9 113 -29 101 -7 -4 -11 -40 -11
-92 0 -49 -4 -84 -10 -84 -6 0 -10 38 -10 95 0 88 1 95 20 95 11 0 20 5 20 10
0 11 -11 13 -34 4 -13 -5 -16 -24 -16 -99 0 -73 -3 -95 -16 -106 -14 -12 -14
-14 3 -20 15 -6 15 -8 2 -8 -29 -2 -38 23 -41 109 -2 68 -6 85 -18 85 -12 0
-16 -19 -21 -90 l-5 -90 -4 110 -3 110 -7 -85 c-4 -56 -13 -95 -24 -113 -18
-27 -18 -27 5 -28 18 -1 20 -2 6 -6 -10 -3 -27 2 -36 11 -10 9 -25 14 -35 10
-12 -4 -16 0 -16 15 0 21 -1 22 -25 4 -30 -22 -31 -30 -2 -36 12 -2 -1 -5 -29
-6 -39 -1 -55 4 -68 18 -10 11 -24 17 -32 14 -22 -8 -18 53 4 67 15 10 15 10
-3 8 -14 -2 -21 -12 -23 -36 -2 -20 -11 -36 -25 -44 l-22 -12 25 -6 c14 -4
-15 -7 -64 -8 -54 -1 -94 2 -102 9 -10 8 -14 41 -14 124 0 63 3 121 6 130 10
26 57 15 65 -15z"/>
<path d="M366 437 c-16 -12 -14 -13 18 -9 20 2 36 8 36 13 0 13 -34 11 -54 -4z"/>
<path d="M494 426 c-3 -8 -4 -23 -1 -33 3 -12 5 -9 6 9 0 14 7 29 14 31 9 4 9
6 -1 6 -7 1 -15 -5 -18 -13z"/>
<path d="M400 410 c0 -5 5 -10 10 -10 6 0 10 5 10 10 0 6 -4 10 -10 10 -5 0
-10 -4 -10 -10z"/>
<path d="M592 348 c-3 -85 -21 -108 -86 -108 -25 0 -48 -4 -51 -10 -4 -6 16
-10 53 -10 83 0 94 14 89 116 l-3 79 -2 -67z"/>
<path d="M353 335 c-3 -9 -3 -19 1 -22 3 -4 6 -1 6 5 0 7 14 12 30 12 17 0 30
5 30 10 0 17 -60 12 -67 -5z"/>
<path d="M261 326 c-10 -12 -8 -13 8 -9 12 3 18 9 15 14 -7 12 -10 11 -23 -5z"/>
<path d="M392 303 c2 -10 10 -18 18 -18 8 0 16 8 18 18 2 12 -3 17 -18 17 -15
0 -20 -5 -18 -17z"/>
<path d="M320 230 c-10 -7 5 -10 53 -10 43 0 66 4 62 10 -8 13 -95 13 -115 0z"/>
<path d="M1416 437 c-16 -12 -14 -13 18 -9 20 2 36 8 36 13 0 13 -34 11 -54
-4z"/>
<path d="M743 375 c0 -33 2 -45 4 -27 2 18 2 45 0 60 -2 15 -4 0 -4 -33z"/>
<path d="M1450 410 c0 -5 7 -10 16 -10 8 0 12 5 9 10 -3 6 -10 10 -16 10 -5 0
-9 -4 -9 -10z"/>
<path d="M1403 335 c-3 -9 -3 -19 1 -22 3 -4 6 -1 6 5 0 7 14 12 30 12 17 0
30 5 30 10 0 17 -60 12 -67 -5z"/>
<path d="M1621 326 c-10 -12 -8 -13 8 -9 12 3 18 9 15 14 -7 12 -10 11 -23 -5z"/>
<path d="M1442 303 c2 -10 10 -18 18 -18 8 0 16 8 18 18 2 12 -3 17 -18 17
-15 0 -20 -5 -18 -17z"/>
<path d="M974 235 c-19 -14 -18 -14 4 -15 13 0 22 6 22 15 0 19 -1 19 -26 0z"/>
<path d="M720 230 c-11 -7 3 -10 48 -10 35 0 62 4 62 10 0 13 -90 13 -110 0z"/>
<path d="M1380 230 c-11 -7 4 -10 48 -10 40 0 61 4 57 10 -8 13 -85 13 -105 0z"/>
</g>
</svg>
